<svg width="128" height="64" viewBox="0 0 128 64" fill="none" xmlns="http://www.w3.org/2000/svg">
<style>
  path { fill: black; }
  @media (prefers-color-scheme: dark) {
    path { fill: white; }
  }
</style>
<path d="M88.8838 49.1816C90.3501 53.0296 91 57.9123 91 64L101 64C101 57.9126 101.651 53.0305 103.117 49.1826C106.875 50.8668 110.787 53.8589 115.091 58.1631L122.162 51.0918C117.858 46.7876 114.866 42.8756 113.182 39.1182C117.03 37.6517 121.912 37 128 37L128 27C121.912 27 117.03 26.3501 113.182 24.8838C114.866 21.1259 117.857 17.213 122.162 12.9082L115.091 5.83691C110.787 10.1412 106.875 13.1342 103.117 14.8184C101.651 10.9703 101 6.08783 101 -2.36041e-06L91 -3.23464e-06C91 6.08811 90.3503 10.9712 88.8838 14.8193C85.1255 13.1354 81.2126 10.1423 76.9072 5.83691L69.8359 12.9082C74.141 17.2132 77.1343 21.1257 78.8184 24.8838C74.9704 26.3501 70.0877 27 64 27C44 27 37 20 37 -3.26077e-07L27 -1.2003e-06C27 20 20 27 3.23464e-06 27L2.36041e-06 37C20 37 27 44 27 64L37 64C37 44 44 37 64 37C70.0874 37 74.9695 37.651 78.8174 39.1172C77.1333 42.8749 74.1405 46.7872 69.8359 51.0918L76.9072 58.1631C81.2124 53.8579 85.1256 50.8656 88.8838 49.1816Z"/>
</svg>
